<svg version="1.0" xmlns="http://www.w3.org/2000/svg"
 width="950.000000pt" height="1280.000000pt" viewBox="0 0 950.000000 1280.000000"
 preserveAspectRatio="xMidYMid meet">
<metadata>
Created by potrace 1.15, written by Peter Selinger 2001-2017
</metadata>
<g transform="translate(0.000000,1280.000000) scale(0.100000,-0.100000)"
fill="#fdaa54" stroke="none">
<path d="M5389 12703 c-106 -110 -166 -182 -324 -393 -171 -230 -214 -278
-300 -343 -175 -133 -245 -205 -245 -253 0 -27 46 -68 342 -305 461 -370 989
-832 1237 -1082 l103 -104 -17 -27 c-10 -15 -75 -79 -144 -142 -216 -198 -287
-293 -298 -401 -7 -62 9 -87 63 -102 51 -14 92 2 189 74 66 50 95 65 120 65
19 0 37 -5 41 -11 3 -6 10 -63 15 -127 27 -338 115 -571 389 -1037 68 -115
151 -268 186 -340 58 -121 140 -342 130 -352 -2 -2 -30 3 -62 12 -33 9 -107
19 -165 22 l-106 6 -16 -69 c-9 -38 -19 -89 -22 -114 -15 -105 -38 -197 -61
-242 l-24 -48 -38 19 c-106 53 -282 96 -460 112 -243 21 -474 -11 -944 -130
-402 -103 -534 -124 -928 -151 -397 -26 -473 -32 -590 -46 -313 -35 -524 -90
-807 -210 -196 -83 -352 -169 -778 -427 -154 -94 -335 -200 -402 -238 l-122
-67 -193 70 c-327 117 -478 168 -613 203 -101 27 -273 65 -292 65 -2 0 -3 -14
-3 -32 0 -26 12 -43 65 -94 36 -34 65 -69 65 -77 0 -8 -9 -22 -19 -31 -19 -17
-23 -17 -63 -2 -24 9 -92 24 -153 35 -60 11 -118 22 -128 26 -14 6 -12 -5 14
-66 406 -961 1036 -1773 2004 -2584 165 -138 406 -329 492 -390 24 -17 43 -32
43 -35 0 -3 -69 -29 -153 -58 -294 -103 -728 -283 -1287 -532 -113 -50 -259
-107 -325 -127 -219 -64 -279 -108 -278 -201 0 -26 5 -59 11 -74 l11 -27 193
50 c236 61 592 179 1003 334 616 232 825 304 1099 380 l151 41 63 -43 c190
-130 413 -198 911 -279 481 -77 732 -125 753 -143 8 -7 -64 -404 -117 -646
-110 -503 -263 -886 -455 -1140 -28 -36 -50 -67 -50 -69 0 -1 26 0 59 2 127 9
246 -45 292 -134 l24 -45 -41 -37 c-22 -20 -68 -54 -102 -74 -34 -20 -71 -52
-82 -70 -21 -34 -36 -95 -27 -104 3 -3 22 0 44 6 460 132 1089 66 1558 -164
72 -35 168 -91 214 -124 l84 -60 41 16 c23 9 104 48 181 88 77 39 163 79 192
89 l52 16 -14 38 c-45 129 -121 211 -257 276 -118 57 -220 85 -460 130 -328
61 -482 107 -586 174 -86 55 -83 36 -50 291 78 616 182 1045 344 1430 l44 105
337 0 c223 0 375 5 448 14 652 80 1161 307 1568 700 517 499 818 1213 888
2106 14 179 5 727 -14 883 -14 111 -11 119 36 82 17 -13 34 -47 52 -101 15
-44 37 -92 49 -106 l22 -25 32 63 c18 35 40 100 48 143 20 98 9 203 -37 341
-47 140 -215 449 -250 460 -26 9 -52 -8 -95 -60 -59 -72 -70 -63 -99 80 -43
215 -161 489 -302 705 -38 58 -143 204 -232 325 -287 387 -410 594 -491 830
-39 114 -83 306 -93 407 l-5 48 62 53 c33 29 126 102 206 162 80 60 188 150
240 201 l95 92 75 11 c41 5 170 17 285 26 515 38 676 66 852 151 75 35 166
111 195 161 l17 29 -47 35 c-199 148 -370 217 -1002 404 -370 110 -521 168
-694 267 -84 48 -236 162 -236 176 0 4 19 15 41 25 22 11 56 40 77 65 73 92
137 149 178 159 36 9 39 11 37 43 -1 28 -13 45 -62 92 -64 61 -73 84 -42 112
17 16 19 15 32 -5 10 -14 22 -20 39 -17 24 3 23 4 -14 27 -55 34 -122 39 -174
12 -65 -33 -103 -72 -218 -222 -59 -77 -125 -155 -148 -173 -45 -37 -98 -66
-119 -66 -7 0 -85 72 -173 161 -457 463 -895 842 -1372 1187 -62 45 -114 82
-115 82 -2 0 -46 -44 -98 -97z m215 -64 c11 -10 -47 -101 -86 -134 -35 -29
-78 -32 -101 -7 -14 15 -15 24 -5 55 6 20 21 46 34 58 43 41 128 56 158 28z
m-254 -193 c0 -36 -11 -55 -92 -149 -32 -37 -58 -73 -58 -80 0 -6 -12 1 -25
16 -43 48 -35 68 75 184 80 85 100 90 100 29z m390 14 c0 -30 4 -40 16 -40 9
0 18 9 21 20 6 23 8 24 34 10 29 -16 23 -37 -26 -92 -25 -28 -45 -55 -45 -60
0 -6 -6 -5 -15 2 -8 7 -15 20 -15 29 0 36 -15 44 -48 27 -17 -9 -44 -16 -60
-16 -29 0 -30 1 -22 37 5 20 17 48 28 62 22 30 77 61 110 61 19 0 22 -5 22
-40z m272 -197 c-11 -16 -31 -50 -45 -78 -31 -62 -63 -93 -106 -101 l-34 -7 5
60 c7 97 63 152 156 153 l43 0 -19 -27z m-899 -81 c43 -37 1 -113 -85 -156
-30 -15 -69 -26 -92 -26 -37 0 -39 1 -24 16 9 9 36 19 61 21 l45 5 -17 29
c-15 27 -15 29 10 56 15 15 34 40 44 55 17 28 25 28 58 0z m983 13 c20 -8 65
-41 101 -74 36 -33 80 -65 100 -72 31 -10 33 -13 20 -27 -8 -10 -29 -45 -45
-78 -36 -71 -82 -114 -121 -114 l-28 0 29 56 c26 53 35 84 23 84 -2 0 -30 -11
-62 -25 -31 -14 -63 -23 -71 -20 -24 9 -4 57 40 96 35 30 40 39 34 62 -3 15
-12 27 -18 27 -7 0 -39 -26 -70 -57 -58 -57 -59 -58 -86 -43 -41 24 -39 45 12
95 35 33 46 52 46 75 0 27 3 30 30 30 17 0 47 -7 66 -15z m318 -272 c-16 -71
-64 -119 -127 -130 -32 -5 -37 -3 -37 14 0 10 10 39 23 63 24 47 73 80 120 80
25 0 27 -3 21 -27z m83 -90 c-11 -65 -61 -112 -134 -128 -33 -7 -33 -6 -27 27
4 18 14 47 23 63 17 31 90 75 124 75 17 0 19 -5 14 -37z m210 -186 c42 -39 51
-85 27 -126 -10 -17 -22 -31 -26 -31 -15 0 -18 20 -6 39 9 16 10 23 1 32 -9 9
-18 7 -40 -8 -37 -27 -69 -36 -99 -29 -20 5 -24 13 -24 41 0 28 7 40 40 66 22
18 42 40 45 51 5 15 10 16 28 7 12 -6 37 -25 54 -42z m211 -171 c15 -8 49 -42
75 -75 39 -50 55 -63 92 -73 39 -11 43 -14 31 -28 -8 -8 -27 -42 -44 -75 -39
-78 -71 -107 -117 -109 -35 -1 -38 2 -89 84 -64 104 -90 121 -153 98 -48 -17
-49 -15 -32 45 13 49 58 100 112 126 49 24 87 27 125 7z m552 -6 c22 -11 50
-20 64 -20 33 0 29 -11 -43 -123 l-56 -87 -45 6 c-61 8 -105 30 -119 60 -21
46 -15 54 37 54 64 0 88 24 85 86 -1 38 1 44 18 44 11 0 37 -9 59 -20z m-120
-259 c0 -91 -151 -184 -218 -134 -14 11 -29 31 -33 46 -6 23 -4 27 14 27 12 0
41 -10 64 -22 40 -21 44 -22 59 -6 15 15 15 18 -8 41 -13 13 -31 26 -39 29
-27 9 10 37 54 41 107 9 107 9 107 -22z m220 -51 c159 -107 407 -215 757 -330
136 -45 352 -116 478 -157 334 -110 612 -224 598 -246 -12 -20 -152 -76 -253
-101 -135 -33 -294 -53 -495 -61 -203 -8 -499 12 -575 39 -11 4 -25 -16 -53
-72 -96 -201 -285 -390 -491 -491 -121 -60 -203 -82 -336 -88 -97 -5 -129 -2
-200 16 -83 21 -193 68 -257 111 -28 19 -33 20 -33 6 0 -26 25 -79 46 -98 11
-9 63 -35 116 -58 102 -44 116 -58 103 -107 -6 -24 -4 -25 26 -19 17 3 49 22
70 41 45 40 58 42 90 16 23 -18 23 -20 6 -39 -9 -10 -35 -24 -58 -31 -49 -15
-68 -48 -50 -88 l12 -27 46 48 c35 36 52 46 72 44 24 -3 25 -6 22 -50 -3 -61
19 -82 120 -120 41 -16 79 -31 85 -35 6 -5 26 -60 45 -123 41 -144 148 -362
259 -530 46 -69 160 -231 254 -360 215 -296 318 -458 405 -635 96 -194 158
-382 186 -561 6 -40 6 -41 -33 -52 -22 -7 -78 -12 -126 -12 -136 0 -249 46
-423 171 -44 33 -88 59 -96 59 -9 0 -28 -10 -43 -23 -22 -19 -28 -34 -32 -81
l-5 -57 -29 7 c-93 20 -247 99 -463 236 -82 53 -184 113 -226 134 l-77 37 -6
76 c-14 159 -63 369 -123 521 -44 114 -166 358 -288 580 -260 472 -355 698
-416 989 -31 152 -29 161 45 239 34 38 65 73 67 79 3 9 24 6 74 -8 86 -24 192
-25 223 -3 31 21 45 60 32 85 -14 25 -37 24 -102 -6 -54 -25 -122 -33 -133
-15 -11 17 41 95 97 145 29 26 105 87 168 135 148 113 175 157 129 206 l-21
22 59 7 c118 14 200 36 277 74 l80 39 18 -23 c13 -16 39 -28 92 -39 41 -10 81
-25 90 -35 16 -17 18 -16 54 17 42 40 168 102 255 126 31 9 82 23 113 32 l56
15 -132 79 c-178 106 -223 123 -330 124 -59 0 -97 -5 -124 -17 -22 -10 -41
-16 -42 -14 -10 10 62 134 102 177 44 47 149 110 183 110 9 0 36 -14 61 -30z
m-847 -110 c-18 -75 -81 -156 -177 -227 -126 -93 -102 -29 45 123 54 56 103
114 109 130 9 22 13 25 20 14 5 -8 6 -26 3 -40z m282 -124 c19 -8 35 -19 35
-24 0 -12 -229 -126 -237 -119 -12 13 8 74 33 101 49 53 108 67 169 42z m-490
-662 c-17 -35 -40 -64 -64 -80 -38 -25 -101 -47 -109 -39 -7 7 48 97 82 134
17 18 49 42 71 52 35 16 40 16 43 3 2 -8 -8 -40 -23 -70z m207 -2636 c312
-239 390 -297 518 -381 154 -101 332 -192 470 -241 l95 -34 6 -48 c3 -27 15
-69 27 -94 23 -48 28 -95 12 -105 -15 -9 -186 39 -307 86 -146 57 -291 133
-543 284 -118 71 -271 158 -339 193 l-123 65 4 151 c3 120 7 159 22 189 10 20
20 37 22 37 2 0 63 -46 136 -102z m-867 -214 c437 -57 871 -205 1178 -402 66
-43 69 -63 13 -77 l-38 -9 4 -111 c3 -91 9 -120 30 -165 47 -105 124 -170 245
-211 182 -60 390 -384 464 -720 55 -253 39 -541 -41 -757 -11 -29 -20 -55 -20
-57 0 -2 46 18 103 45 56 26 158 67 227 90 91 30 131 49 147 68 13 15 23 30
23 35 0 4 9 27 21 52 l21 45 115 0 115 0 38 38 c51 50 75 131 65 216 -8 74
-38 164 -64 189 -18 18 -21 18 -122 -2 -95 -19 -259 -40 -449 -56 l-76 -6 -11
68 c-39 227 -167 465 -351 655 -110 114 -191 177 -309 244 -46 26 -83 50 -83
54 0 17 44 62 84 85 41 24 120 54 178 69 26 6 28 4 34 -34 11 -69 22 -75 75
-41 25 16 56 32 68 36 20 6 21 3 21 -47 1 -88 30 -104 134 -73 54 16 76 9 76
-26 0 -14 -7 -19 -30 -19 -31 0 -45 -17 -51 -60 -3 -21 1 -26 22 -28 15 -2 51
6 82 16 48 17 58 18 75 6 20 -14 20 -15 -9 -44 -34 -33 -33 -47 8 -140 35 -79
39 -127 14 -173 -17 -34 -18 -38 -3 -32 47 21 122 17 196 -9 83 -29 117 -32
165 -15 66 23 11 59 -62 40 -45 -11 -107 0 -107 20 0 4 14 24 30 43 29 33 100
66 142 66 30 0 96 31 104 48 4 9 10 44 13 77 l6 60 46 -1 c52 -2 95 -21 154
-69 56 -46 78 -55 130 -57 l45 -2 0 -84 0 -83 -47 -19 c-120 -49 -156 -83
-157 -152 -1 -47 15 -59 49 -34 13 9 21 30 25 67 5 52 6 54 36 57 29 3 32 -1
52 -49 20 -48 24 -51 52 -47 l30 5 0 -196 c0 -192 -8 -245 -30 -211 -5 8 -10
45 -10 83 0 74 -9 82 -51 48 l-23 -19 17 -54 c9 -30 17 -69 17 -85 0 -26 5
-33 30 -42 36 -12 60 -60 60 -120 0 -78 -19 -91 -51 -36 -24 41 -28 42 -62 15
-38 -30 -25 -57 40 -86 63 -28 73 -46 46 -82 -63 -85 -83 -177 -93 -422 -6
-180 -9 -202 -32 -251 -27 -59 -66 -102 -113 -126 -16 -9 -31 -17 -33 -18 -1
-1 4 -15 13 -31 32 -61 20 -89 -77 -192 -76 -81 -94 -113 -78 -143 9 -15 7
-19 -7 -19 -33 -1 -101 -38 -147 -81 -49 -45 -50 -47 -37 -68 8 -12 19 -6 60
32 49 46 74 57 86 37 8 -13 -46 -90 -87 -125 -27 -23 -39 -26 -78 -22 -25 2
-53 8 -63 12 -16 7 -17 4 -11 -21 4 -16 15 -47 25 -69 28 -61 26 -65 -31 -58
-58 7 -61 2 -84 -109 -20 -102 -55 -143 -130 -155 -36 -6 -36 -5 -36 30 0 29
7 41 40 67 48 38 54 70 13 70 -43 0 -88 -33 -131 -97 -50 -74 -73 -86 -151
-81 -67 3 -72 -2 -46 -52 22 -42 58 -39 154 11 67 35 81 40 100 29 12 -6 21
-16 19 -21 -8 -25 -124 -105 -218 -151 -58 -28 -135 -71 -171 -94 -37 -24 -69
-44 -73 -44 -3 0 -6 13 -6 29 0 23 6 31 33 41 54 20 62 26 65 54 4 30 -15 41
-53 32 -43 -11 -75 -49 -108 -131 -53 -133 -40 -125 -264 -149 -156 -17 -196
-33 -232 -93 l-26 -42 -110 -1 c-60 0 -180 -9 -265 -20 -85 -11 -185 -20 -223
-20 l-68 0 16 30 c22 42 20 50 -26 118 l-41 61 -34 -16 c-42 -21 -43 -40 -4
-95 16 -24 32 -55 36 -70 5 -24 3 -28 -14 -28 -11 0 -34 13 -50 29 -27 28 -39
57 -77 194 -17 63 -40 82 -62 51 -10 -14 -12 -39 -7 -106 l7 -88 -31 0 c-20 0
-36 -7 -46 -21 -13 -20 -18 -21 -45 -10 -39 17 -43 31 -25 92 9 28 13 53 11
55 -2 2 -17 -2 -33 -11 -16 -8 -42 -15 -59 -15 -53 0 -75 -11 -75 -35 0 -27
15 -41 52 -50 33 -8 29 -19 -15 -42 -22 -12 -66 -20 -142 -24 -60 -3 -119 -9
-130 -14 -39 -17 5 23 66 61 55 33 79 58 79 82 0 6 -24 1 -52 -11 -61 -23
-206 -28 -433 -14 -116 8 -134 6 -165 -10 -19 -10 -41 -30 -48 -45 -7 -16 -19
-28 -26 -28 -20 0 -52 40 -83 105 l-28 60 -170 0 c-156 0 -170 -1 -173 -18 -5
-26 23 -53 61 -61 l32 -7 -23 -19 c-44 -36 -154 -35 -247 4 -30 13 -34 18 -26
34 5 10 32 28 59 41 53 25 74 55 65 92 -15 62 -39 63 -84 3 -35 -48 -74 -74
-108 -74 -20 0 -20 0 0 35 37 62 8 93 -118 125 -74 18 -113 15 -113 -9 0 -18
62 -61 88 -61 l27 -1 -25 -13 c-68 -37 -248 -61 -312 -43 -33 9 -36 34 -9 68
18 23 19 23 71 6 29 -9 65 -17 81 -17 59 0 24 62 -53 95 -75 31 -229 10 -243
-34 -4 -14 -16 -16 -77 -13 -132 6 -204 38 -222 98 -6 20 -2 21 106 29 147 11
296 12 331 2 23 -6 27 -5 27 15 0 37 -28 58 -77 58 -49 0 -53 12 -12 42 17 13
54 20 137 26 123 10 149 21 187 80 15 24 27 31 52 32 40 0 59 -19 77 -80 21
-71 34 -90 59 -90 45 0 48 19 14 81 -36 66 -31 88 17 69 15 -5 64 -10 109 -10
92 0 118 -9 98 -34 -7 -8 -29 -18 -50 -22 -44 -8 -61 -21 -61 -45 0 -29 34
-40 113 -37 l72 3 3 45 c2 24 8 50 14 57 16 19 94 17 102 -3 11 -28 6 -59 -14
-97 -29 -54 -26 -91 9 -116 16 -12 31 -21 34 -21 3 0 8 35 12 78 12 146 38
182 131 182 57 0 73 -10 48 -31 -8 -7 -22 -26 -31 -42 -13 -26 -13 -31 1 -45
30 -31 130 18 161 79 15 28 17 28 39 14 13 -9 50 -20 84 -26 72 -13 130 -5
389 51 218 48 319 54 364 21 15 -12 31 -21 34 -21 4 0 46 22 95 49 156 86 233
113 331 117 80 2 90 5 145 40 32 21 196 116 364 212 168 96 350 203 405 239
320 209 516 422 631 684 43 98 43 110 -1 34 -19 -33 -45 -73 -57 -88 -24 -29
-24 -29 -84 -17 -60 12 -60 12 -127 -25 -41 -23 -67 -43 -67 -53 0 -10 11 -37
25 -61 26 -44 34 -114 15 -126 -18 -11 -75 14 -105 45 -33 34 -46 36 -80 14
-18 -12 -25 -25 -25 -49 0 -29 4 -34 51 -53 45 -19 50 -24 47 -48 -2 -22 -14
-33 -54 -54 -28 -14 -82 -52 -120 -85 -71 -60 -152 -105 -191 -105 -35 0 -31
53 5 90 29 28 56 38 165 60 54 11 57 13 57 41 0 17 -7 44 -16 60 -14 28 -14
33 0 54 9 14 16 27 16 30 0 3 -65 5 -145 5 -134 0 -145 -1 -145 -18 0 -10 12
-29 26 -43 21 -20 38 -24 101 -27 l75 -4 -39 -22 c-21 -13 -73 -50 -115 -83
-70 -55 -106 -75 -193 -101 l-30 -9 62 -40 63 -41 -56 -42 c-307 -232 -777
-401 -1319 -474 -301 -41 -784 -46 -1085 -11 -927 106 -1652 438 -1993 913
-59 83 -137 218 -137 240 0 9 23 1 67 -24 131 -73 162 -85 236 -91 40 -3 70
-3 67 -1 -3 3 -77 50 -165 103 -314 192 -454 295 -591 437 -136 140 -224 279
-289 453 -7 18 -9 17 -21 -10 -32 -73 -6 -183 69 -288 61 -85 206 -222 364
-342 125 -96 131 -102 147 -153 51 -166 146 -302 389 -556 145 -151 164 -175
140 -173 -37 3 -52 -43 -29 -96 18 -44 42 -48 83 -13 39 32 69 47 85 40 18 -7
68 -74 68 -91 0 -7 -33 -29 -74 -47 -82 -37 -91 -46 -82 -82 8 -31 34 -31 94
1 47 25 96 33 106 16 9 -15 -82 -91 -142 -119 -49 -23 -70 -27 -147 -27 -77 0
-98 4 -145 27 -30 14 -68 37 -83 50 l-29 23 17 65 c23 94 32 114 71 151 19 18
34 36 34 41 0 4 -16 10 -35 14 -75 14 -124 -35 -153 -154 l-17 -72 -36 0 c-30
0 -41 7 -68 40 -17 22 -38 40 -46 40 -8 0 -15 9 -15 20 0 26 14 25 51 -1 42
-30 63 -22 67 25 9 105 -76 152 -180 100 -25 -13 -29 -11 -79 33 -80 72 -102
140 -83 256 6 34 9 37 41 37 28 0 42 -8 70 -40 40 -44 63 -51 63 -19 0 61 -44
106 -153 156 -91 43 -118 21 -74 -58 34 -60 34 -77 -1 -85 -15 -3 -49 -13 -75
-22 -45 -15 -50 -15 -82 2 l-34 18 20 51 c28 70 52 101 104 134 49 30 51 41
14 60 -28 15 -155 17 -163 4 -3 -5 1 -28 9 -51 19 -54 19 -63 -3 -90 l-18 -22
-31 49 c-36 56 -68 82 -213 180 -118 80 -186 144 -177 167 3 8 23 18 44 22 58
10 73 21 73 54 0 36 -5 37 -67 5 -88 -45 -128 -4 -53 56 34 28 40 38 40 71 0
37 -1 38 -35 38 -31 0 -35 -3 -46 -40 -15 -50 -31 -64 -64 -56 -20 5 -25 12
-25 40 0 47 -33 85 -81 92 -32 5 -39 10 -33 23 28 67 37 121 24 165 -22 79
-92 134 -186 143 -30 3 -54 10 -54 15 0 5 15 18 34 29 52 30 51 44 -2 75 -102
60 -224 202 -303 354 -43 84 -196 455 -191 464 9 16 127 -5 214 -39 48 -19
103 -37 122 -40 33 -7 35 -6 41 28 9 48 -7 72 -65 102 -53 27 -70 49 -70 91
l0 27 73 -6 c109 -9 225 -47 428 -140 101 -47 207 -92 234 -101 77 -25 200
-46 266 -46 60 0 61 1 142 68 718 598 1752 948 2892 978 l220 6 105 53 c289
146 658 194 1075 139z m2965 -379 l0 -65 -80 0 c-44 0 -80 3 -80 8 0 4 7 15
15 25 7 11 17 36 20 58 l7 39 59 0 59 0 0 -65z m-729 -26 c67 -33 146 -66 174
-74 l50 -13 -40 -17 c-67 -29 -170 -8 -339 69 -42 19 -76 40 -76 45 0 6 9 20
20 31 33 33 77 25 211 -41z m-43 -1525 c6 -11 13 -33 16 -47 4 -25 2 -27 -29
-27 -42 0 -49 -10 -35 -57 9 -34 8 -40 -11 -55 -24 -20 -47 -23 -69 -8 -13 9
-13 11 0 20 8 5 25 10 38 10 24 0 29 14 10 27 -7 4 -35 10 -63 13 l-50 5 -3
55 c-4 87 33 133 118 148 l45 8 11 -36 c6 -19 16 -44 22 -56z m433 74 c50 -21
51 -22 44 -57 -17 -91 -72 -129 -199 -138 l-85 -6 -12 29 c-6 16 -9 48 -6 72
11 105 136 153 258 100z m-5216 -2027 c-32 -31 -246 -155 -395 -230 -227 -113
-473 -210 -845 -332 -335 -110 -666 -212 -671 -207 -3 4 755 331 1058 457 199
83 823 317 853 320 5 1 5 -2 0 -8z m2213 -883 c6 -6 12 -23 12 -38 0 -26 -3
-28 -51 -32 -39 -4 -56 -11 -69 -28 l-17 -23 -22 22 c-24 24 -22 49 10 113
l19 36 52 -20 c29 -11 59 -24 66 -30z m-207 -183 c38 -68 48 -74 71 -45 l18
22 0 -23 c0 -38 -28 -274 -46 -384 -49 -312 -123 -669 -199 -964 -25 -96 -43
-182 -40 -192 10 -29 100 -106 161 -137 82 -41 134 -58 329 -107 162 -40 170
-44 173 -68 3 -21 -5 -31 -37 -53 -23 -15 -41 -32 -41 -39 0 -6 33 -24 73 -40
39 -15 118 -51 175 -80 104 -54 292 -173 292 -186 0 -15 -79 -17 -143 -4 -118
25 -305 114 -588 280 l-106 62 -114 -19 c-63 -10 -129 -17 -148 -16 l-34 3 41
48 c23 27 42 52 42 58 0 5 -46 9 -104 9 l-104 0 6 -45 c9 -81 -22 -90 -173
-55 -113 26 -208 26 -260 0 -30 -15 -41 -17 -47 -7 -10 16 -10 22 3 51 24 52
145 83 274 71 119 -11 133 -10 160 15 32 30 31 50 -2 117 -32 63 -24 77 39 69
66 -7 60 49 -8 89 -42 24 -44 28 -44 70 0 25 2 45 4 45 2 0 23 -9 47 -20 24
-11 52 -20 62 -20 15 0 16 3 6 21 -12 23 -9 66 11 175 13 65 12 74 -4 99 -10
14 -31 31 -48 37 l-31 11 22 19 c15 11 39 18 67 18 39 0 44 2 44 23 0 34 -29
56 -78 58 -47 3 -51 8 -23 33 30 28 89 155 111 241 42 166 19 310 -63 380
l-42 36 28 77 c15 43 27 98 27 124 l0 45 41 7 c83 13 133 62 129 124 -3 41 -2
44 20 32 11 -6 34 -35 51 -65z m-425 -781 c85 -145 67 -382 -62 -831 l-15 -53
-40 21 c-113 57 -154 131 -147 261 6 98 23 151 128 388 43 97 84 195 91 218 6
23 14 42 15 42 2 0 15 -21 30 -46z m1274 -1156 c36 -12 89 -22 117 -22 48 -1
53 -3 53 -24 0 -66 -48 -79 -156 -42 -86 30 -95 21 -26 -28 82 -57 157 -91
239 -106 62 -11 68 -14 68 -36 0 -18 -11 -32 -37 -49 -21 -13 -38 -30 -38 -38
0 -38 -94 7 -186 89 -67 59 -151 108 -186 108 -24 0 -23 31 2 79 22 44 19 51
-23 51 -29 0 -30 1 -13 19 32 35 74 35 186 -1z"/>
<path d="M8600 6280 c-8 -5 -55 -10 -105 -10 -104 0 -123 -7 -106 -38 11 -21
13 -21 46 -5 19 9 38 14 41 10 11 -10 -17 -66 -42 -86 -13 -11 -24 -22 -24
-26 0 -4 29 -5 65 -3 52 3 73 10 107 34 59 41 77 74 58 108 -15 29 -18 30 -40
16z"/>
<path d="M7600 5693 c0 -7 9 -59 20 -115 39 -204 39 -291 -3 -304 -12 -4 -53
-6 -92 -6 -84 1 -110 -13 -124 -65 -6 -21 -11 -41 -11 -45 0 -17 53 -6 88 17
47 32 60 31 73 -1 13 -35 -9 -59 -60 -68 -21 -3 -44 -12 -50 -20 -19 -23 29
-50 76 -43 76 13 183 110 183 166 0 25 -7 26 -32 4 -15 -13 -23 -14 -43 -5
-34 16 -32 23 13 47 79 42 104 163 61 300 -14 47 -32 80 -60 109 -21 22 -39
36 -39 29z"/>
<path d="M1582 5598 c-18 -18 -15 -25 12 -32 13 -3 43 -22 67 -42 47 -39 110
-74 134 -74 43 0 -15 97 -80 136 -45 26 -113 32 -133 12z"/>
<path d="M5680 3753 c-96 -10 -140 -25 -165 -54 -14 -17 -25 -40 -25 -51 0
-18 4 -19 53 -13 70 8 153 52 179 93 14 23 16 32 6 30 -7 0 -29 -3 -48 -5z"/>
<path d="M3784 3355 c-23 -36 -5 -95 39 -129 35 -27 89 -57 94 -52 6 6 -28
161 -40 175 -31 40 -69 42 -93 6z"/>
</g>
</svg>
