<svg version="1.0" xmlns="http://www.w3.org/2000/svg"
 width="1280.000000pt" height="886.000000pt" viewBox="0 0 1280.000000 886.000000"
 preserveAspectRatio="xMidYMid meet">
<metadata>
Created by potrace 1.15, written by Peter Selinger 2001-2017
</metadata>
<g transform="translate(0.000000,886.000000) scale(0.100000,-0.100000)"
fill="#ff9800" stroke="none">
<path d="M5802 8837 c-41 -44 -52 -89 -52 -217 0 -67 -4 -120 -9 -120 -5 0
-16 24 -25 53 -31 107 -116 211 -146 181 -22 -22 -29 -87 -19 -172 5 -47 8
-86 6 -88 -1 -2 -18 19 -36 47 -42 64 -74 81 -102 52 -25 -24 -42 -96 -33
-136 5 -27 4 -29 -12 -22 -40 16 -58 10 -91 -33 -27 -36 -33 -52 -33 -95 0
-66 -9 -80 -44 -71 -45 11 -102 -53 -120 -138 -4 -17 -16 -29 -36 -36 -37 -13
-90 -94 -90 -137 0 -24 -7 -35 -30 -48 -39 -23 -60 -65 -60 -118 0 -32 -5 -45
-26 -62 -32 -24 -57 -81 -49 -107 4 -12 -4 -34 -21 -59 -21 -33 -25 -47 -20
-76 5 -24 2 -42 -8 -57 -9 -12 -13 -31 -10 -42 3 -13 -8 -41 -31 -76 -19 -30
-35 -62 -35 -71 0 -9 -8 -27 -19 -40 -10 -13 -28 -45 -39 -71 -24 -55 -24 -55
-132 -32 -41 8 -97 19 -125 23 -27 4 -70 17 -95 29 -25 11 -70 30 -100 42 -31
11 -81 40 -112 65 -68 53 -118 143 -167 296 -18 57 -36 113 -41 124 -5 11 -11
31 -14 45 -3 14 -12 34 -21 45 -15 20 -15 20 -35 -4 -26 -30 -25 -70 1 -171
12 -45 19 -83 16 -86 -11 -12 -27 9 -77 100 -51 95 -72 115 -96 95 -29 -24 -9
-92 51 -185 50 -76 55 -94 25 -94 -30 0 -70 23 -105 60 -35 38 -148 120 -164
120 -28 0 -5 -40 59 -103 65 -63 85 -97 59 -97 -6 0 -48 20 -93 45 -75 40
-116 55 -116 40 0 -3 7 -17 16 -31 21 -31 12 -41 -22 -25 -35 16 -47 5 -39
-35 5 -29 3 -34 -14 -34 -45 0 -44 -67 1 -91 l23 -12 -32 -14 c-27 -10 -33
-19 -33 -42 0 -16 6 -31 13 -34 7 -2 12 -22 12 -53 0 -45 2 -49 30 -58 17 -6
31 -11 33 -12 2 -1 -1 -12 -8 -24 -16 -31 -3 -60 36 -76 19 -8 34 -21 34 -29
0 -27 47 -48 90 -41 42 7 54 -6 26 -28 -21 -16 -9 -65 18 -76 11 -4 32 -20 46
-35 14 -15 43 -39 64 -52 57 -37 206 -113 220 -113 7 0 33 -14 60 -30 33 -22
54 -28 72 -24 19 5 33 -2 64 -30 22 -20 46 -36 53 -36 8 0 54 -13 103 -30 49
-16 116 -35 149 -41 33 -6 65 -14 70 -19 6 -5 26 -10 45 -12 28 -2 36 -8 38
-26 3 -19 -14 -40 -77 -99 -80 -75 -110 -113 -130 -165 -13 -35 2 -45 27 -18
27 29 119 54 110 30 -6 -19 -195 -162 -261 -198 -61 -33 -71 -43 -98 -96 -17
-33 -39 -71 -50 -84 -22 -28 -25 -62 -6 -62 21 0 69 34 146 104 41 36 83 68
95 70 12 2 47 10 79 17 31 7 59 10 62 7 11 -11 -8 -37 -32 -43 -28 -7 -82 -48
-177 -137 l-61 -56 13 -36 c9 -25 10 -41 3 -55 -33 -61 2 -78 74 -35 36 21 47
23 63 13 28 -17 144 47 222 122 33 33 85 75 115 94 56 36 64 50 83 148 7 38 9
39 97 73 50 20 111 44 137 54 72 28 207 104 363 204 177 113 263 177 345 258
148 144 379 338 404 338 19 0 107 114 167 215 105 177 136 220 177 248 45 31
175 73 257 81 33 4 83 11 110 15 28 5 106 16 175 25 69 10 141 21 160 27 19 5
62 9 95 9 74 0 110 17 110 50 0 21 -9 27 -75 50 -74 25 -121 51 -170 96 -14
13 -47 33 -74 45 -72 31 -140 22 -297 -40 -70 -27 -155 -55 -190 -62 -82 -15
-190 -65 -254 -116 -27 -22 -90 -88 -140 -146 -54 -63 -102 -110 -120 -117
-16 -6 -43 -18 -60 -27 -44 -22 -164 -52 -211 -53 -74 0 -79 10 -77 157 4 185
39 274 150 376 67 61 87 112 78 202 -6 63 -4 76 15 108 12 20 30 62 40 94 10
32 26 77 34 100 32 86 47 192 47 335 1 206 -36 369 -101 438 -33 36 -59 38
-88 7z"/>
<path d="M467 7523 c-16 -15 -6 -121 17 -186 13 -37 26 -71 30 -74 3 -4 6 -13
6 -22 0 -19 40 -98 81 -159 33 -49 34 -53 14 -46 -8 3 -74 94 -146 203 -134
200 -188 268 -199 252 -14 -24 12 -191 31 -191 4 0 17 -21 29 -46 13 -25 63
-97 111 -160 49 -63 89 -117 89 -119 0 -17 -31 8 -127 103 -60 59 -148 149
-194 200 -63 69 -90 91 -102 86 -25 -9 -21 -48 13 -120 31 -64 121 -184 179
-238 27 -26 41 -56 26 -56 -6 0 -140 92 -230 157 -66 48 -81 52 -90 23 -12
-39 63 -161 134 -218 23 -18 41 -37 41 -42 0 -5 -27 2 -60 16 -33 15 -66 24
-75 20 -35 -13 -8 -85 58 -153 27 -29 36 -43 25 -43 -56 0 -42 -81 28 -159 25
-28 41 -51 35 -51 -6 0 -15 -9 -21 -19 -14 -28 33 -115 76 -142 38 -23 39 -26
20 -52 -18 -24 0 -62 52 -109 33 -30 36 -37 28 -61 -9 -24 -5 -32 34 -72 29
-30 44 -54 47 -76 6 -56 71 -109 135 -109 39 0 78 -10 78 -19 0 -3 -15 -13
-33 -22 -25 -12 -32 -22 -32 -44 0 -30 12 -40 59 -50 l29 -6 -28 -29 c-27 -28
-27 -30 -11 -55 9 -14 28 -30 42 -35 25 -10 31 -24 14 -35 -18 -11 -10 -53 15
-83 14 -17 25 -42 25 -57 0 -32 17 -65 42 -83 10 -8 18 -21 17 -30 -4 -27 11
-61 31 -72 10 -5 21 -23 25 -40 4 -16 14 -36 24 -42 9 -7 23 -27 30 -45 9 -22
23 -36 45 -43 29 -9 32 -13 28 -46 -3 -27 1 -42 20 -62 13 -15 30 -40 36 -55
7 -16 26 -46 44 -68 29 -36 35 -39 83 -39 l52 0 -5 -55 c-4 -50 -2 -56 27 -85
17 -17 31 -39 31 -47 0 -9 18 -33 40 -54 22 -21 40 -45 40 -52 0 -8 17 -33 38
-55 20 -23 47 -55 60 -71 13 -17 30 -31 37 -31 23 0 27 -17 14 -62 -11 -42
-10 -43 22 -70 19 -16 45 -28 61 -28 59 0 31 -33 -94 -110 -66 -41 -148 -101
-182 -134 -33 -32 -70 -65 -81 -73 -19 -14 -19 -14 -1 -28 10 -7 16 -19 14
-26 -4 -11 -88 -42 -95 -36 -1 2 9 15 23 30 l25 27 -29 0 c-16 0 -55 -9 -88
-19 -32 -10 -104 -29 -159 -41 -143 -31 -138 -29 -131 -54 5 -20 -2 -26 -49
-45 -30 -13 -58 -28 -62 -34 -3 -5 6 -20 21 -32 l27 -21 -36 -19 c-50 -28 -42
-55 16 -55 25 0 24 -8 -3 -37 l-22 -23 24 -22 c19 -18 27 -20 51 -11 16 6 38
9 49 6 11 -3 20 -1 20 5 0 5 11 17 25 26 l26 17 -21 -41 c-12 -23 -19 -45 -16
-48 3 -3 40 3 81 13 41 10 77 16 81 12 4 -3 -10 -25 -30 -47 -34 -38 -45 -60
-28 -60 23 0 156 35 287 75 83 25 168 48 190 52 62 9 87 27 130 92 22 33 47
61 55 61 8 0 34 -8 59 -17 40 -15 61 -16 225 -5 297 20 385 42 686 179 208 95
258 123 418 237 62 45 130 92 151 106 20 14 73 55 117 91 147 122 200 155 320
203 69 28 141 65 173 90 153 115 380 252 498 299 46 18 141 38 268 57 44 6
112 17 150 25 39 7 117 16 175 20 58 3 138 13 179 21 41 8 87 12 102 9 15 -3
30 -1 34 4 3 7 45 11 100 11 109 0 125 4 125 35 0 29 -14 40 -67 54 -51 14
-220 101 -284 148 -68 48 -111 63 -184 63 -109 0 -214 -32 -309 -93 -73 -48
-148 -82 -276 -127 -52 -18 -99 -37 -105 -42 -5 -4 -17 -8 -26 -8 -9 0 -61
-18 -116 -41 -148 -61 -231 -87 -334 -105 -128 -22 -218 -12 -372 40 -26 9
-80 21 -120 27 -120 18 -129 25 -177 126 -60 128 -108 262 -142 393 -27 105
-29 124 -23 222 4 66 2 114 -4 125 -6 10 -20 56 -31 102 -29 115 -100 255
-169 333 -31 35 -65 84 -75 108 -27 62 -153 329 -172 362 -25 45 -69 181 -119
368 -54 197 -76 250 -105 250 -47 0 -76 -142 -45 -216 9 -21 10 -34 4 -32 -6
2 -27 44 -47 93 -33 79 -40 90 -64 93 -23 3 -30 -3 -49 -39 -35 -69 -25 -140
39 -273 29 -60 52 -118 52 -130 -1 -19 -3 -18 -29 10 -15 17 -65 90 -111 162
-95 152 -101 158 -129 142 -41 -21 -54 -56 -47 -117 4 -31 10 -61 15 -67 22
-28 91 -169 86 -175 -4 -3 -47 36 -97 87 -50 50 -99 92 -109 92 -10 0 -27 -12
-38 -26 -38 -48 -23 -127 40 -222 16 -24 29 -47 29 -52 0 -10 -69 15 -142 50
-43 21 -70 15 -82 -16 -12 -32 -5 -90 14 -122 l20 -33 -29 -10 c-17 -6 -34
-22 -41 -40 -13 -30 -24 -36 -35 -19 -3 6 -11 10 -17 10 -12 0 14 -44 50 -82
14 -15 23 -30 21 -32 -3 -3 -57 45 -121 107 -63 62 -165 159 -225 217 -188
180 -305 325 -377 468 -15 29 -54 123 -86 208 -80 208 -107 254 -133 227z
m442 -4001 c-7 -12 -22 -23 -32 -26 -16 -4 -14 1 8 24 31 33 44 33 24 2z"/>
<path d="M6882 5995 c-81 -35 -216 -152 -494 -428 -162 -160 -331 -332 -375
-381 l-81 -89 -27 42 c-31 47 -46 48 -57 5 -3 -16 -11 -47 -17 -69 -5 -22 -13
-61 -16 -87 -8 -59 -21 -61 -35 -5 -36 145 -41 153 -80 107 -45 -52 -53 -90
-56 -255 -1 -82 -3 -172 -5 -200 -2 -42 0 -50 14 -47 19 3 32 -19 41 -71 16
-89 -9 -65 -146 137 -94 138 -162 210 -187 197 -13 -8 -15 -24 -12 -87 4 -98
20 -161 78 -297 25 -59 43 -111 39 -114 -3 -3 -45 21 -94 54 -96 65 -172 99
-197 89 -24 -9 -10 -116 25 -193 30 -65 29 -70 -15 -53 -20 8 -32 6 -52 -7
-25 -16 -25 -18 -21 -119 l3 -102 -30 -14 c-48 -21 -60 -59 -45 -136 12 -64
12 -64 -14 -88 -20 -19 -26 -34 -26 -68 0 -60 18 -104 49 -121 l26 -14 -36 -1
c-35 0 -61 -18 -71 -50 -3 -10 -10 -6 -23 15 -10 17 -25 41 -35 55 -28 42 -77
151 -98 220 -34 108 -43 167 -52 350 -5 96 -12 185 -16 198 -9 32 -29 27 -56
-15 -21 -35 -23 -48 -22 -173 0 -96 5 -153 18 -199 18 -68 16 -93 -4 -39 -42
111 -65 191 -95 332 -43 199 -57 220 -95 146 -24 -47 -26 -120 -5 -230 14 -77
45 -183 65 -220 6 -11 7 -20 2 -20 -18 0 -124 227 -166 355 -24 71 -48 131
-54 133 -6 2 -19 -9 -29 -24 -22 -35 -25 -187 -4 -249 16 -46 48 -123 61 -145
36 -62 72 -142 66 -148 -9 -8 -131 119 -151 159 -8 14 -21 29 -30 32 -8 4 -15
12 -15 18 0 7 -16 31 -35 55 -19 23 -35 46 -35 51 0 4 -13 23 -29 42 -44 53
-55 36 -49 -75 6 -100 8 -107 105 -254 34 -53 17 -54 -50 -5 -86 63 -145 98
-155 91 -13 -7 26 -146 47 -171 49 -58 49 -58 4 -51 -38 7 -41 6 -50 -21 -5
-15 -6 -39 -2 -53 5 -14 11 -38 14 -53 3 -15 14 -35 25 -45 25 -21 25 -32 1
-32 -22 0 -40 -20 -46 -51 -5 -25 14 -75 48 -123 16 -23 18 -32 9 -47 -7 -10
-12 -31 -12 -45 0 -28 33 -91 58 -111 13 -11 13 -17 3 -36 -11 -21 -10 -30 8
-64 11 -22 34 -52 51 -67 24 -20 29 -29 22 -43 -13 -25 11 -76 47 -102 21 -15
43 -21 71 -19 60 3 73 -17 24 -38 -74 -30 -92 -64 -54 -99 11 -10 20 -24 20
-31 0 -7 13 -25 30 -41 19 -18 28 -34 24 -45 -3 -11 3 -22 15 -30 12 -7 21
-22 21 -34 0 -33 25 -49 56 -35 14 6 36 11 50 11 13 0 39 6 57 14 22 9 47 11
73 7 l39 -7 -35 -18 c-52 -28 -118 -77 -124 -93 -3 -7 3 -21 14 -30 11 -10 20
-29 20 -44 0 -26 27 -59 48 -59 7 0 12 -16 12 -40 0 -32 6 -45 30 -67 17 -14
30 -35 30 -45 0 -26 21 -32 73 -21 33 8 48 6 64 -4 l21 -14 -24 -52 c-32 -69
-30 -81 11 -113 23 -17 35 -35 35 -50 0 -17 10 -29 40 -44 22 -11 37 -26 35
-33 -9 -22 19 -60 60 -81 31 -16 41 -28 43 -51 4 -32 37 -75 58 -75 7 0 20
-16 29 -35 9 -19 32 -43 51 -54 19 -11 34 -28 34 -38 1 -21 23 -53 38 -53 5 0
13 -11 16 -25 7 -27 34 -33 54 -13 6 6 30 14 54 18 24 4 50 10 58 14 9 3 23 1
33 -6 16 -12 7 -22 -87 -102 -65 -56 -137 -106 -192 -135 -81 -42 -93 -53
-141 -120 -43 -60 -51 -77 -42 -92 5 -11 14 -17 18 -14 5 2 5 -10 2 -27 -5
-26 -13 -33 -41 -40 -19 -5 -44 -19 -55 -32 -31 -37 -63 -48 -134 -50 -76 -1
-97 -13 -179 -100 -29 -31 -62 -61 -72 -66 -37 -20 -23 -33 29 -26 l49 6 -9
-37 c-12 -52 -12 -53 11 -53 10 0 48 27 82 61 101 98 141 121 222 130 39 5 87
11 108 15 20 3 44 1 55 -5 15 -8 9 -10 -30 -11 -77 0 -291 -110 -272 -140 3
-5 18 -10 32 -10 l26 0 -27 -25 c-14 -13 -26 -31 -26 -39 0 -8 -24 -28 -53
-44 -29 -16 -59 -37 -66 -46 -13 -15 -12 -18 8 -23 27 -7 23 -24 -12 -41 -30
-14 -35 -36 -12 -49 18 -10 8 -25 -27 -40 -16 -7 -28 -19 -28 -27 0 -38 116
-24 290 34 293 98 283 94 305 136 12 22 27 59 34 84 7 24 28 62 46 85 18 22
43 62 55 88 19 41 25 47 44 40 11 -4 129 -6 261 -5 320 3 399 22 535 128 34
26 110 66 200 104 80 34 152 65 160 70 8 5 51 27 95 50 139 72 302 188 414
294 72 68 138 119 197 154 49 28 112 67 139 87 56 40 288 267 312 305 9 14 62
67 119 118 186 168 279 197 714 222 85 5 196 14 245 20 51 7 128 9 178 5 79
-6 88 -5 94 12 4 10 13 23 21 29 21 15 -1 52 -36 60 -99 21 -215 88 -297 171
-37 37 -84 72 -120 89 l-58 28 -136 -12 c-103 -10 -142 -17 -161 -31 -32 -23
-117 -66 -150 -76 -14 -4 -50 -20 -82 -35 -31 -16 -73 -32 -94 -36 -23 -4 -47
-18 -62 -35 -13 -16 -31 -29 -41 -29 -9 0 -24 -8 -33 -17 -8 -10 -28 -27 -43
-38 -15 -11 -40 -32 -57 -48 -16 -15 -33 -27 -37 -27 -4 0 -40 -31 -80 -70
-39 -38 -75 -70 -79 -70 -5 0 -33 -18 -62 -40 -29 -22 -63 -40 -75 -40 -12 0
-30 -7 -41 -15 -14 -10 -46 -14 -114 -14 -133 0 -180 12 -335 84 l-77 36 -48
102 c-26 56 -72 167 -103 247 -137 358 -151 422 -152 730 -1 230 -4 261 -42
421 -26 114 -37 116 -72 9 -36 -109 -41 -106 -41 25 0 66 -7 166 -15 221 -22
156 -22 246 1 277 18 23 27 25 119 29 85 4 129 14 285 61 226 68 280 89 441
165 114 54 127 58 145 45 29 -23 124 -66 131 -60 3 3 1 19 -5 34 -24 68 -25
69 -10 53 29 -35 79 -62 102 -56 17 4 28 -1 44 -23 29 -39 108 -84 138 -78 14
2 27 0 30 -5 4 -6 34 -28 67 -49 63 -41 104 -49 113 -24 5 11 14 8 45 -17 41
-33 163 -80 185 -71 7 2 14 14 16 24 3 19 5 19 38 -7 41 -31 142 -79 188 -89
62 -13 51 21 -62 198 -39 61 -26 67 24 12 43 -48 173 -147 215 -165 57 -24
145 -36 145 -19 0 7 -54 67 -120 135 -66 67 -120 127 -120 134 0 6 35 -20 78
-60 102 -95 210 -150 293 -150 32 0 60 4 63 9 3 5 -24 28 -61 52 -37 24 -99
68 -137 98 -74 57 -171 151 -156 151 5 0 37 -22 72 -48 84 -64 138 -94 234
-127 43 -15 82 -31 85 -36 3 -6 21 -3 42 6 48 20 50 20 42 -15 -8 -36 -2 -37
56 -8 37 18 71 23 214 29 94 5 212 13 262 19 97 12 163 1 163 -26 0 -7 9 -16
20 -19 11 -3 20 -13 20 -21 0 -8 12 -20 27 -27 15 -6 36 -20 45 -29 10 -10 23
-18 28 -18 6 0 18 -7 28 -15 69 -61 97 -78 120 -78 20 0 31 -8 42 -31 11 -23
23 -32 45 -34 16 -2 40 -15 54 -28 13 -13 30 -24 38 -24 9 0 24 -11 35 -25 11
-14 24 -25 29 -25 21 0 90 -77 99 -112 8 -29 18 -40 45 -49 22 -8 35 -20 35
-31 0 -27 57 -87 79 -81 14 3 22 -6 35 -40 21 -56 57 -91 85 -82 17 5 24 -2
45 -42 37 -74 74 -106 113 -100 29 5 35 2 49 -24 18 -35 107 -129 123 -129 6
0 18 11 27 25 9 14 20 25 24 25 4 0 17 -19 29 -43 28 -54 123 -147 150 -147
21 0 36 37 43 105 3 28 6 25 37 -38 19 -40 58 -95 92 -130 57 -60 59 -61 75
-42 13 16 14 34 9 93 -3 39 -2 72 2 72 4 0 21 -25 37 -55 30 -57 130 -159 150
-152 27 9 18 83 -29 247 -5 19 0 15 20 -15 15 -22 37 -51 49 -63 21 -24 106
-72 127 -72 18 0 4 90 -20 139 -29 55 -27 65 8 58 56 -12 65 47 20 135 -21 42
-23 48 -10 48 5 0 25 -24 44 -53 35 -52 115 -127 136 -127 17 0 24 21 30 84
l6 61 28 -57 c15 -32 32 -58 37 -58 6 0 10 -7 10 -14 0 -22 126 -150 139 -142
17 11 13 62 -12 164 -24 96 -22 114 6 60 48 -93 125 -195 176 -233 27 -19 51
-35 55 -35 23 0 -9 102 -79 254 -19 43 -33 81 -31 84 3 3 9 -4 13 -15 5 -10
35 -52 68 -92 49 -60 73 -79 131 -107 39 -19 75 -34 79 -34 17 0 -6 43 -89
163 -47 69 -86 129 -86 133 0 3 20 -12 44 -34 24 -22 61 -45 82 -51 39 -11
114 -15 114 -7 0 3 -48 51 -106 108 -58 57 -140 148 -181 202 -66 88 -321 465
-332 491 -2 6 -21 33 -43 60 -57 75 -71 95 -114 160 -21 33 -46 66 -54 75 -8
8 -39 58 -69 110 -66 114 -178 279 -225 330 -33 36 -52 73 -38 78 6 2 27 16
48 32 54 44 230 127 304 144 47 11 129 16 295 16 127 1 265 6 308 11 129 16
158 19 250 25 81 6 89 8 99 30 15 32 0 48 -60 64 -71 19 -131 49 -190 97 -30
24 -77 55 -105 69 -49 24 -58 25 -152 19 -91 -6 -108 -10 -191 -51 -50 -24
-97 -44 -105 -44 -54 0 -303 -70 -431 -121 -93 -37 -104 -39 -201 -38 -130 0
-223 12 -317 38 -105 29 -219 28 -335 -4 -165 -45 -479 -161 -575 -212 -52
-27 -140 -69 -195 -92 -183 -78 -278 -129 -337 -184 -31 -28 -95 -83 -142
-120 -77 -61 -100 -87 -79 -87 27 0 171 55 185 71 12 14 24 17 47 13 26 -6 30
-10 25 -30 -4 -14 -1 -30 5 -38 9 -11 0 -16 -48 -26 -33 -7 -64 -10 -69 -6 -6
3 -23 0 -39 -8 -15 -8 -46 -19 -68 -26 -22 -6 -57 -19 -78 -28 -29 -12 -43
-13 -56 -5 -17 10 -44 3 -91 -26 -8 -5 -46 -19 -85 -31 -75 -25 -98 -37 -90
-51 8 -12 -29 -29 -64 -29 -44 0 -201 84 -313 168 -53 39 -100 76 -103 82 -13
21 16 9 82 -34 94 -60 150 -83 293 -123 65 -18 150 -25 150 -12 0 5 -6 11 -12
13 -95 26 -151 47 -246 94 -62 30 -116 60 -120 67 -4 7 -25 24 -47 38 -76 50
-140 102 -348 282 -70 60 -127 114 -127 121 0 20 84 82 141 103 30 12 77 21
104 21 47 0 202 19 325 39 30 5 83 10 118 10 34 1 106 8 160 17 57 9 131 14
180 12 60 -3 85 -1 93 9 7 7 8 13 3 13 -4 0 1 6 11 14 19 14 19 15 2 34 -10
11 -30 23 -43 26 -53 14 -195 88 -246 130 -98 80 -143 92 -275 76 -98 -12
-153 -30 -198 -64 -25 -19 -114 -51 -275 -98 -76 -23 -132 -50 -208 -102 l-78
-54 -72 55 c-53 41 -73 63 -78 87 -3 17 -22 54 -41 82 -32 50 -163 185 -232
241 -19 16 -54 45 -78 65 -40 34 -78 56 -126 72 -19 6 -95 -29 -186 -86 -54
-33 -61 -34 -61 -8 0 31 -48 162 -70 192 -11 15 -20 36 -20 48 0 21 -52 60
-80 60 -8 -1 -30 -7 -48 -15z"/>
<path d="M1350 2821 c0 -25 19 -44 80 -77 28 -15 51 -32 51 -38 1 -6 3 -38 3
-71 1 -33 5 -78 9 -100 12 -65 -1 -74 -70 -48 -208 78 -305 113 -358 128 -33
10 -78 24 -100 31 -76 26 -366 101 -535 139 -94 21 -236 30 -244 16 -14 -23 5
-48 57 -72 60 -28 70 -54 38 -95 -39 -49 -25 -75 50 -97 33 -10 45 -18 47 -35
3 -16 -2 -22 -16 -22 -20 0 -52 -29 -52 -48 0 -16 47 -50 80 -57 36 -8 37 -12
8 -42 -30 -32 -16 -71 35 -98 43 -23 45 -31 16 -61 -19 -21 -20 -24 -5 -47 9
-13 32 -33 51 -43 20 -10 33 -24 31 -31 -6 -15 31 -63 49 -63 7 0 26 -11 42
-24 41 -34 197 -114 258 -131 29 -9 58 -21 63 -28 6 -7 15 -47 21 -90 6 -43
15 -87 21 -97 5 -10 10 -30 10 -44 0 -14 4 -27 9 -30 5 -3 12 -32 16 -63 3
-32 15 -76 25 -98 10 -22 24 -76 31 -120 6 -44 16 -85 21 -92 16 -20 30 -84
32 -143 l1 -55 88 -3 c48 -1 87 -7 87 -13 0 -5 -13 -33 -30 -62 -20 -37 -30
-67 -30 -97 0 -38 -5 -47 -47 -84 -70 -62 -133 -152 -133 -191 0 -49 -31 -81
-85 -87 -58 -7 -255 -115 -271 -149 -7 -13 -16 -38 -22 -56 -9 -30 -8 -31 34
-49 24 -10 44 -22 44 -26 0 -4 -9 -22 -20 -40 -11 -18 -20 -44 -20 -57 0 -21
3 -23 34 -18 18 3 53 15 77 26 63 31 70 28 63 -19 -6 -40 -6 -40 25 -40 17 0
71 16 119 36 48 20 116 47 151 60 102 39 117 52 151 123 17 36 34 72 38 80 6
10 44 14 167 16 178 2 148 -5 470 110 159 57 309 126 416 191 90 54 158 81
269 104 128 27 173 47 249 114 33 28 73 60 89 71 17 11 71 48 121 82 50 34
116 71 146 82 109 41 276 77 445 96 30 3 112 19 181 35 70 17 145 30 167 30
31 0 44 5 52 21 12 22 -1 49 -25 49 -39 0 -150 46 -220 91 l-80 51 -90 -5
c-100 -5 -150 -22 -260 -86 -38 -22 -105 -53 -150 -67 -83 -28 -143 -55 -255
-116 -56 -31 -80 -37 -181 -48 -140 -16 -170 -12 -260 34 -137 70 -204 137
-270 271 -67 137 -84 206 -83 340 0 113 25 265 50 314 18 34 18 75 0 110 -19
36 -125 134 -195 179 -31 20 -88 66 -127 103 -40 37 -94 79 -120 95 -27 15
-67 42 -89 59 -22 17 -76 53 -120 79 -44 26 -95 58 -113 71 -18 13 -55 26 -82
30 -28 4 -52 11 -56 16 -3 5 -21 9 -40 9 -27 0 -34 -4 -34 -19z"/>
</g>
</svg>
