<svg version="1.0" xmlns="http://www.w3.org/2000/svg"
 width="1280.000000pt" height="640.000000pt" viewBox="0 0 1280.000000 640.000000"
 preserveAspectRatio="xMidYMid meet">
<metadata>
Created by potrace 1.15, written by Peter Selinger 2001-2017
</metadata>
<g transform="translate(0.000000,640.000000) scale(0.100000,-0.100000)"
fill="#ff9800" stroke="none">
<path d="M11485 5544 c-11 -3 -30 -7 -43 -10 -57 -12 -165 -151 -202 -260 -49
-141 -50 -326 -6 -609 28 -171 32 -309 13 -364 -26 -74 -47 -32 -47 95 0 73
-17 169 -36 205 -23 46 -327 223 -484 282 -63 24 -313 92 -435 119 -95 21
-394 15 -533 -10 -62 -11 -119 -25 -127 -32 -37 -31 -9 -75 88 -140 20 -14 37
-28 37 -32 0 -15 -68 18 -140 69 -147 104 -224 130 -445 153 -126 13 -1110 26
-1152 15 l-28 -7 44 -39 c59 -53 151 -113 238 -155 47 -23 87 -51 114 -82 122
-138 116 -182 -7 -56 -66 68 -98 93 -124 99 -19 4 -68 25 -109 46 -84 44 -89
45 -168 23 -44 -12 -135 -18 -373 -23 -382 -9 -407 -16 -344 -90 24 -29 65
-55 281 -180 93 -53 119 -80 184 -192 88 -150 142 -196 300 -253 26 -9 82 -41
125 -72 142 -99 303 -166 444 -185 100 -14 133 -23 277 -74 258 -93 496 -150
688 -165 67 -5 161 -19 209 -30 154 -36 222 -41 626 -52 621 -16 786 -9 1175
47 94 13 242 31 330 40 233 22 314 49 329 110 7 28 -9 176 -25 240 -44 171
-108 288 -244 450 -37 44 -80 107 -96 140 -36 76 -54 166 -39 195 22 40 63 24
248 -99 263 -173 512 -260 590 -205 53 37 14 97 -133 199 -134 95 -316 296
-378 420 -14 28 -30 77 -36 108 -28 153 -143 305 -261 346 -36 12 -289 24
-325 15z"/>
<path d="M7663 5386 c9 -7 107 -43 216 -80 152 -51 219 -68 283 -74 101 -9
153 -3 153 18 0 12 -15 15 -70 16 -55 1 -96 10 -190 43 -149 52 -306 91 -365
91 -40 -1 -43 -2 -27 -14z"/>
<path d="M1935 4853 c-109 -25 -152 -76 -162 -194 -3 -38 -11 -73 -17 -78 -6
-5 -76 -11 -156 -14 -122 -4 -158 -9 -225 -31 -59 -20 -95 -26 -140 -24 l-60
3 -3 -32 c-3 -32 30 -108 65 -149 33 -39 82 -64 159 -84 140 -36 639 -23 724
18 43 21 60 53 60 114 0 38 -6 53 -35 88 -52 63 -45 80 35 80 21 0 41 4 44 8
3 5 -9 28 -25 53 -17 24 -45 74 -64 110 -35 68 -93 129 -123 129 -9 0 -26 2
-37 4 -11 2 -29 2 -40 -1z"/>
<path d="M565 4806 c-16 -7 -46 -31 -66 -53 -27 -31 -46 -42 -79 -48 -24 -4
-68 -16 -99 -26 -72 -25 -86 -24 -196 13 -78 27 -96 30 -109 19 -32 -27 -7
-138 50 -228 38 -59 75 -86 221 -160 l95 -48 222 0 c257 0 277 5 317 80 27 52
23 61 -56 106 l-50 29 57 -6 c50 -6 59 -4 65 11 5 13 0 23 -18 34 -44 28 -85
77 -121 147 -67 127 -143 170 -233 130z"/>
<path d="M2220 4775 c0 -10 58 -34 165 -68 118 -38 204 -57 269 -57 37 -1 56
-6 131 -35 18 -7 19 -7 4 9 -39 42 -569 183 -569 151z"/>
<path d="M2570 4491 c41 -15 98 -39 125 -53 72 -37 191 -72 342 -102 72 -14
160 -35 195 -46 77 -24 95 -26 79 -6 -27 33 -200 85 -284 86 -31 1 -92 21
-335 109 -68 25 -130 41 -155 41 -42 -1 -42 -1 33 -29z"/>
<path d="M2400 4243 c-87 -32 -110 -64 -110 -156 0 -32 -5 -59 -12 -65 -8 -6
-37 -7 -73 -3 -75 8 -168 -3 -309 -35 -123 -28 -165 -44 -185 -67 -24 -30 -5
-63 64 -106 35 -22 69 -50 75 -62 16 -28 128 -99 257 -162 l107 -52 182 -3
c218 -5 282 5 319 49 49 59 25 139 -66 217 -45 38 -49 52 -16 52 13 0 31 6 41
13 24 18 19 52 -31 195 -40 113 -65 152 -115 178 -27 14 -98 18 -128 7z"/>
<path d="M3465 4130 c-22 -5 -69 -21 -105 -38 -141 -63 -179 -69 -287 -47 -26
6 -33 3 -44 -16 -22 -41 -15 -128 14 -185 56 -111 199 -231 325 -273 58 -20
70 -21 180 -10 181 16 228 41 253 131 15 56 -6 116 -74 216 -31 46 -59 95 -62
110 -19 93 -93 134 -200 112z"/>
<path d="M6550 4011 c-36 -3 -60 -9 -53 -14 6 -4 127 -16 270 -27 142 -11 333
-29 425 -41 179 -22 269 -22 276 -1 7 22 -60 40 -223 56 -143 14 -576 38 -615
34 -8 -1 -44 -4 -80 -7z"/>
<path d="M4242 3858 c5 -14 82 -47 242 -104 55 -20 115 -44 133 -54 45 -26
107 -37 101 -19 -13 38 -185 121 -341 164 -103 28 -141 32 -135 13z"/>
<path d="M4961 3833 c-56 -20 -125 -88 -141 -139 -24 -77 -33 -84 -108 -84
-181 0 -402 -39 -524 -93 -29 -13 -94 -49 -144 -79 -51 -30 -112 -61 -138 -68
-25 -7 -46 -18 -46 -25 0 -22 54 -68 115 -96 102 -47 193 -60 414 -57 143 2
206 -1 235 -11 79 -27 545 4 626 42 19 9 27 24 34 60 8 40 6 56 -13 102 -36
85 -15 113 98 133 74 13 93 26 89 61 -2 21 -12 29 -45 39 -28 9 -73 43 -140
104 -54 49 -115 99 -135 109 -45 23 -115 24 -177 2z"/>
<path d="M6900 3671 c58 -48 120 -61 368 -76 131 -8 354 -23 497 -34 143 -11
340 -25 437 -31 210 -13 259 -21 398 -65 135 -43 274 -61 354 -46 111 21 92
31 -76 41 -111 7 -148 13 -223 40 -49 18 -121 43 -160 57 -90 31 -181 38 -782
58 -503 17 -632 26 -728 52 -33 8 -71 17 -85 20 l-25 5 25 -21z"/>
<path d="M12420 3681 c0 -10 106 -58 203 -92 84 -29 114 -57 123 -115 3 -24
12 -48 20 -55 35 -28 49 126 15 160 -22 22 -175 74 -283 96 -82 18 -78 17 -78
6z"/>
<path d="M2898 3496 c4 -30 1 -34 -35 -48 -21 -8 -76 -21 -123 -28 -159 -24
-160 -29 -5 -26 171 3 225 17 225 59 0 20 -45 77 -61 77 -3 0 -3 -15 -1 -34z"/>
<path d="M9668 3491 c-122 -40 -220 -128 -293 -263 -35 -65 -40 -82 -43 -159
-5 -101 11 -170 87 -362 67 -171 90 -270 99 -423 18 -299 -23 -300 -49 -2 -19
227 -43 293 -120 342 -63 40 -287 104 -524 150 -284 56 -517 83 -819 95 -223
9 -251 16 -376 83 -100 55 -196 120 -367 249 -161 123 -214 153 -249 145 -49
-13 -31 -60 89 -240 l59 -89 -61 7 c-33 3 -88 9 -122 12 l-61 7 7 -59 c12 -94
41 -197 80 -281 47 -100 66 -153 56 -153 -30 0 -144 178 -191 298 -29 72 -38
86 -70 102 -111 56 -465 87 -540 46 -19 -10 -65 -22 -101 -26 -37 -4 -84 -16
-106 -26 -50 -25 -53 -56 -17 -161 51 -149 88 -208 214 -333 133 -133 256
-224 387 -287 51 -25 96 -50 100 -56 4 -7 10 -42 14 -79 7 -81 43 -158 104
-226 55 -61 103 -84 220 -106 252 -48 271 -55 444 -144 422 -218 429 -221 595
-242 44 -6 230 -22 411 -35 310 -24 429 -30 1013 -55 154 -6 240 -14 255 -22
28 -16 192 -15 297 1 324 52 663 162 780 253 58 46 77 126 48 209 -21 61 -89
152 -192 255 -121 120 -179 158 -252 161 -117 5 -327 125 -470 267 -60 61
-154 180 -154 197 0 22 26 0 161 -134 293 -291 435 -362 511 -254 45 63 22
113 -136 302 -136 162 -162 233 -176 485 -5 91 -14 183 -21 205 -38 131 -161
281 -272 330 -80 37 -170 42 -249 16z m-2150 -1271 c281 -63 368 -95 607 -225
186 -101 290 -153 470 -236 50 -23 50 -23 19 -27 -43 -4 -172 49 -439 181
-286 142 -384 180 -594 233 -182 46 -246 70 -277 106 -19 21 -19 21 6 15 14
-3 107 -24 208 -47z m1404 -531 c75 -21 133 -47 125 -56 -6 -5 -208 45 -287
71 l-45 15 68 -5 c38 -3 100 -15 139 -25z"/>
<path d="M3345 3451 c-57 -23 235 -47 323 -27 41 10 41 22 1 30 -45 9 -300 6
-324 -3z"/>
<path d="M12235 3389 c-77 -4 -336 -13 -575 -19 -427 -10 -490 -14 -490 -30 0
-21 125 -31 400 -32 550 -2 538 -3 650 20 58 12 155 26 215 31 102 9 165 23
165 36 0 7 -193 4 -365 -6z"/>
<path d="M1360 3360 c129 -22 192 -38 344 -90 138 -47 214 -60 346 -59 l95 1
-95 19 c-52 11 -140 36 -195 56 -55 19 -131 44 -169 54 -69 19 -284 40 -381
38 -42 -1 -34 -4 55 -19z"/>
<path d="M2059 3355 c91 -43 256 -65 488 -65 154 0 209 12 105 24 -31 3 -166
15 -299 26 -133 11 -261 22 -285 25 l-43 5 34 -15z"/>
<path d="M5427 3256 c11 -97 -17 -120 -162 -130 -102 -7 -146 -16 -142 -31 3
-16 275 -13 314 3 65 28 80 120 28 176 -34 37 -43 33 -38 -18z"/>
<path d="M10313 3183 c-7 -2 -13 -8 -13 -13 0 -20 80 -33 285 -46 121 -7 270
-21 330 -30 123 -18 192 -15 375 17 75 14 171 22 277 24 126 2 173 7 213 21
27 10 50 22 50 26 0 17 -333 0 -535 -27 -137 -19 -219 -19 -343 -1 -167 25
-601 45 -639 29z"/>
<path d="M4345 3061 l-40 -7 40 -7 c66 -11 448 -20 491 -12 l39 8 -35 8 c-48
11 -445 19 -495 10z"/>
<path d="M3552 3049 c-68 -4 -127 -11 -130 -14 -10 -11 638 2 678 13 43 12
-364 13 -548 1z"/>
<path d="M11120 1760 c0 -5 33 -36 73 -67 39 -32 96 -81 124 -110 47 -47 54
-50 68 -37 37 38 5 83 -93 133 -34 17 -82 44 -108 61 -51 32 -64 36 -64 20z"/>
<path d="M11043 1668 c16 -89 19 -159 8 -185 -19 -44 -89 -90 -212 -139 -143
-57 -520 -226 -515 -231 7 -8 211 49 316 88 222 81 458 198 508 252 19 21 21
28 12 52 -13 35 -109 195 -117 195 -3 0 -3 -15 0 -32z"/>
<path d="M5027 1551 c-185 -14 -157 -22 183 -51 270 -24 439 -49 560 -84 114
-33 204 -44 390 -50 249 -8 392 -28 487 -67 40 -16 56 -4 26 21 -30 24 -175
67 -248 74 -33 3 -89 15 -125 26 -46 15 -110 24 -215 30 -161 9 -272 24 -540
71 -187 33 -345 42 -518 30z"/>
<path d="M7126 1161 c-9 -14 29 -20 239 -36 207 -16 327 -32 455 -61 61 -14
131 -18 365 -19 169 -1 321 -7 365 -14 82 -13 614 -18 668 -7 17 4 32 11 32
16 0 23 -77 30 -314 30 -214 -1 -270 2 -376 21 -104 18 -171 22 -395 24 -194
1 -297 6 -365 18 -181 31 -660 51 -674 28z"/>
<path d="M6393 1010 c-39 -4 -76 -11 -82 -14 -33 -21 2 -26 162 -24 166 1 176
0 277 -29 58 -17 143 -36 190 -42 103 -13 392 -28 675 -36 116 -3 235 -8 265
-11 70 -6 50 8 -51 35 -118 33 -202 41 -523 51 -223 7 -315 14 -356 25 -30 9
-82 23 -115 30 -73 18 -344 27 -442 15z"/>
</g>
</svg>
